<svg viewBox="0 0 233 122" fill="none" xmlns="http://www.w3.org/2000/svg">
<path d="M70.9998 110.5H20.9998L3 89.5V35.5L28.5 9.5H62.5L70.9998 2.5H129.5L135 7.5H224.5L230.5 13L230.5 38L211.5 54.5H172L195.5 78V89.5L185 101.5H162L153 93.5H144.5L140 99H132L123.5 110.5H102L98.5002 119.5H70.9998V110.5Z" fill="#474747"/>
<path d="M22.8258 83.1702C20.1941 81.4955 19.1388 78.699 18.1324 75.8934C16.0881 70.194 13.3226 62.4202 14.1065 56.3449C15.0315 49.1759 15.1906 42.7339 17.5727 35.7199C18.9238 31.7417 22.4794 29.6506 25.3232 26.8069C29.2792 22.8508 32.7084 18.1197 38.7789 18.7119C44.3958 19.2599 50.2268 19.4213 55.421 21.7906C57.2869 22.6417 59.0065 23.1875 60.5018 24.5678C61.2823 25.2883 61.9042 24.6894 62.6012 24.0182L62.6117 24.0081C64.2155 22.4637 65.1458 20.5493 66.5731 18.8626C68.3321 16.7837 69.9836 15.1608 72.1276 13.4157C73.7071 12.1301 75.3546 11.2748 77.1869 10.3586C83.8925 7.00578 92.0646 6.87683 99.6419 7.90425C103.321 8.40317 107.072 8.65134 110.729 9.196C113.594 9.62269 115.963 10.1433 118.889 10.1433H128.706C134.843 10.1433 140.656 11.6934 146.791 11.6934C160.064 11.6934 173.247 12.0809 186.534 12.0809C192.109 12.0809 197.649 13.2435 203.283 13.2435C209.621 13.2435 215.933 12.3741 222.1 14.0185C225.467 14.9164 226.459 14.7753 227.697 18.3674C228.462 20.5837 228.386 22.7467 228.386 25.063C228.386 27.306 227.684 29.661 227.138 31.8447C226.289 35.2389 224.58 36.4878 222.337 38.8632C219.546 41.818 214.628 44.5476 210.969 46.3769C208.897 47.4128 202.777 46.6231 200.657 46.3984C193.207 45.609 185.805 46.1138 178.331 45.7741C165.243 45.1792 165.141 43.0396 154.907 43.4489C152.447 43.5473 149.591 42.9605 147.2 43.492C145.105 43.9575 144.945 44.3656 145.843 45.8817C146.752 47.415 148.963 49.4726 149.331 51.2209C149.837 53.6257 153.135 55.3483 153.938 57.9596C155.335 62.4972 151.872 70.865 148.901 74.1064C147.117 76.0524 144.978 78.6756 142.528 79.7256C137.111 82.047 131.746 82.7793 127.931 87.8205C125.613 90.8833 124.084 91.4346 120.331 92.1048C118.272 92.4725 114.702 93.0172 113.291 91.5235C112.193 90.3602 110.883 88.4888 109.115 88.4233C107.245 88.3541 106.513 89.652 105.326 90.77C103.459 92.5265 102.04 95.4513 100.804 97.6378L100.797 97.6515C99.0588 100.726 98.3464 101.987 94.6902 101.987C91.8467 101.987 86.2811 101.948 85.6264 98.4559C84.84 94.2617 85.002 89.5882 85.002 85.3231C85.002 82.3237 83.0708 81.2456 80.567 80.5867C77.4614 79.7695 74.3094 78.6497 71.0511 80.07C68.0074 81.3968 65.526 82.6574 62.6978 84.3543C59.9147 86.0242 58.917 87.8336 57.1002 90.2749C55.5324 92.3817 53.3307 93.1354 50.8998 93.4827C42.4802 94.6855 38.4654 85.4316 33.6334 80.4576C31.6492 78.415 31.6988 75.6603 29.9735 73.5036C28.0583 71.1097 27.2692 81.7188 27.2608 82.1368C27.2032 85.0189 24.8285 84.4446 22.8258 83.1702Z" fill="#9C9A9D"/>
<path d="M25.879 44.8483C24.5711 38.9629 29.0078 34.7461 33.5 32.5C37.2362 31.4325 44.9201 30.9773 40.4543 36.5596C39.1756 38.1579 26.8395 49.1707 25.879 44.8483Z" fill="white"/>
<path d="M63.8415 55.0962C59.0094 50.7473 60.0417 51.3396 61.1078 45.7956C61.1078 42.4403 62.9616 37.5444 65.0041 34.9449C70.1406 28.4076 75.9498 22.3309 82.0767 16.8604C84.4714 14.7222 86.7043 14.2532 89.7411 13.631C96.5 12.2462 102.458 12.1046 107.524 14.0185C110.779 15.2481 112.618 16.3437 116.071 16.3437H131.766H167.268C173.302 16.3437 178.836 18.6688 184.9 18.6688C192.109 18.6688 199.397 18.3473 206.601 18.6904C209.093 18.809 215.432 18.4429 215.73 22.458C215.914 24.9489 214.035 29.6212 212.242 31.4141C209.907 33.7493 206.45 34.7279 203.415 35.7199C199.196 37.0991 193.144 36.1597 188.775 36.1075C178.133 35.9803 167.525 34.5574 156.848 34.5574C152.062 34.5574 147.442 34.0052 143.284 31.4572C138.123 28.2938 132.459 26.4193 126.341 26.4193C122.213 26.4193 124.603 29.8828 126.599 31.6294C130.072 34.6678 130.645 38.5119 132.541 42.5232C133.252 44.0276 135.214 49.4369 133.445 50.7473C131.129 52.4628 127.015 49.3738 124.661 48.5513C121.339 47.3902 117.663 45.7253 114.521 44.1163C112.437 43.0487 111.031 42.6426 108.773 43.7718C107.262 44.5272 107.166 46.7831 107.869 48.3791C109.546 52.1901 113.812 55.1131 113.359 59.5743C112.621 66.8296 103.944 58.9306 100.592 57.6797C99.5232 57.2809 98.5704 57.1707 98.2236 58.3686C97.5904 60.5562 96.4975 62.2375 95.4679 64.203C94.5047 66.0418 95.3236 69.2742 95.188 71.3077C95.1241 72.2659 93.9277 74.6147 93.4011 75.5058C91.8325 78.1604 88.6755 76.6115 86.684 75.1614C84.3106 73.4332 83.8195 71.6566 82.3781 69.3916C80.5062 66.4499 77.5376 64.8473 75.4457 62.1578C72.9895 58.9997 67.0298 57.9656 63.8415 55.0962Z" fill="white"/>
<path d="M102 110.5L98.5002 119.5H70.9998V110.5H20.9998L3 89.5V35.5L28.5 9.5H62.5L70.9998 2.5H129.5L135 7.5H224.5L230.5 13L230.5 38L211.5 54.5H172M102 110.5H123.5L132 99M102 110.5L111.5 89.5L102 65M132 99H140L144.5 93.5M132 99V73.5L111.5 47.5M144.5 93.5H153L162 101.5H185L195.5 89.5V78L172 54.5M144.5 93.5L162 59.5L157 54.5M172 54.5H157M157 54.5L150 47.5" stroke="black" stroke-width="5" stroke-linecap="round" stroke-linejoin="round"/>
</svg>
